<svg xmlns="http://www.w3.org/2000/svg" xmlns:xlink="http://www.w3.org/1999/xlink" width="500" zoomAndPan="magnify" viewBox="0 0 375 374.999991" height="500" preserveAspectRatio="xMidYMid meet" version="1.0"><defs><g/></defs><path stroke-linecap="butt" transform="matrix(0.751576, 0, 0, 0.768, 91.066859, 212.627213)" fill="none" stroke-linejoin="miter" d="M -0.000601762 0.00220444 L 148.6921 0.00220444 " stroke="#000000" stroke-width="12" stroke-opacity="1" stroke-miterlimit="4"/><g fill="#000000" fill-opacity="1"><g transform="translate(91.066859, 195.564269)"><g><path d="M 19.78125 0.703125 C 14.550781 0.703125 10.484375 -0.722656 7.578125 -3.578125 C 4.671875 -6.429688 3.21875 -10.472656 3.21875 -15.703125 L 3.21875 -35.234375 L 13.1875 -35.234375 L 13.1875 -16.015625 C 13.1875 -10.367188 15.421875 -7.546875 19.890625 -7.546875 C 24.316406 -7.546875 26.53125 -10.367188 26.53125 -16.015625 L 26.53125 -35.234375 L 36.34375 -35.234375 L 36.34375 -15.703125 C 36.34375 -10.472656 34.890625 -6.429688 31.984375 -3.578125 C 29.085938 -0.722656 25.019531 0.703125 19.78125 0.703125 Z M 19.78125 0.703125 "/></g></g></g><g fill="#000000" fill-opacity="1"><g transform="translate(135.014931, 195.564269)"><g><path d="M 35.34375 0 L 35.234375 -18.671875 L 26.171875 -3.46875 L 21.75 -3.46875 L 12.734375 -18.171875 L 12.734375 0 L 3.53125 0 L 3.53125 -35.234375 L 11.734375 -35.234375 L 24.109375 -14.90625 L 36.203125 -35.234375 L 44.40625 -35.234375 L 44.5 0 Z M 35.34375 0 "/></g></g></g><g fill="#000000" fill-opacity="1"><g transform="translate(187.42024, 195.564269)"><g><path d="M 27.140625 -6.84375 L 12.234375 -6.84375 L 9.46875 0 L -0.703125 0 L 14.84375 -35.234375 L 24.671875 -35.234375 L 40.28125 0 L 29.90625 0 Z M 24.21875 -14.203125 L 19.6875 -25.46875 L 15.15625 -14.203125 Z M 24.21875 -14.203125 "/></g></g></g><g fill="#000000" fill-opacity="1"><g transform="translate(231.368313, 195.564269)"><g><path d="M 18.921875 -9.359375 L 13.484375 -9.359375 L 13.484375 0 L 3.53125 0 L 3.53125 -35.234375 L 19.640625 -35.234375 C 22.828125 -35.234375 25.59375 -34.703125 27.9375 -33.640625 C 30.289062 -32.585938 32.101562 -31.078125 33.375 -29.109375 C 34.65625 -27.148438 35.296875 -24.847656 35.296875 -22.203125 C 35.296875 -19.648438 34.695312 -17.425781 33.5 -15.53125 C 32.3125 -13.632812 30.609375 -12.148438 28.390625 -11.078125 L 36 0 L 25.328125 0 Z M 25.21875 -22.203125 C 25.21875 -23.847656 24.695312 -25.125 23.65625 -26.03125 C 22.613281 -26.9375 21.070312 -27.390625 19.03125 -27.390625 L 13.484375 -27.390625 L 13.484375 -17.0625 L 19.03125 -17.0625 C 21.070312 -17.0625 22.613281 -17.503906 23.65625 -18.390625 C 24.695312 -19.285156 25.21875 -20.554688 25.21875 -22.203125 Z M 25.21875 -22.203125 "/></g></g></g><g fill="#000000" fill-opacity="1"><g transform="translate(208.34378, 216.12809)"><g><path d="M 3.703125 -3.46875 L 2.28125 -2.015625 L 2.28125 0 L 1.171875 0 L 1.171875 -7.796875 L 2.28125 -7.796875 L 2.28125 -3.4375 L 6.515625 -7.796875 L 7.78125 -7.796875 L 4.453125 -4.296875 L 8 0 L 6.703125 0 Z M 3.703125 -3.46875 "/></g></g></g><g fill="#000000" fill-opacity="1"><g transform="translate(219.116324, 216.12809)"><g><path d="M 7.875 -7.796875 L 7.875 0 L 6.765625 0 L 6.765625 -3.46875 L 2.28125 -3.46875 L 2.28125 0 L 1.171875 0 L 1.171875 -7.796875 L 2.28125 -7.796875 L 2.28125 -4.4375 L 6.765625 -4.4375 L 6.765625 -7.796875 Z M 7.875 -7.796875 "/></g></g></g><g fill="#000000" fill-opacity="1"><g transform="translate(230.924728, 216.12809)"><g><path d="M 6.140625 -1.953125 L 2 -1.953125 L 1.140625 0 L -0.015625 0 L 3.515625 -7.796875 L 4.625 -7.796875 L 8.171875 0 L 7 0 Z M 5.75 -2.84375 L 4.0625 -6.65625 L 2.390625 -2.84375 Z M 5.75 -2.84375 "/></g></g></g><g fill="#000000" fill-opacity="1"><g transform="translate(241.84207, 216.12809)"><g><path d="M 7.875 -7.796875 L 7.875 0 L 6.96875 0 L 2.28125 -5.8125 L 2.28125 0 L 1.171875 0 L 1.171875 -7.796875 L 2.078125 -7.796875 L 6.765625 -1.984375 L 6.765625 -7.796875 Z M 7.875 -7.796875 "/></g></g></g></svg>